#!OML:ASF H:\Terrain\Patient Classification 1\Animal1\Tuesday\Animal1.ASF
:FULLY-SPECIFIED
:DEGREES
2218
root -2.2496 16.8122 24.042 -350.175 12.0166 718.46
lowerback -5.96622 1.21092 -0.983419
upperback -6.96717 1.69275 0.530878
thorax -3.90654 0.921822 1.13825
lowerneck -8.80047 1.43367 -1.49023
upperneck 19.8933 0.904039 6.89312
head 7.50766 0.979137 2.5964
rclavicle 3.03147e-015 7.45443e-015
rhumerus -44.4256 2.94702 -80.3248
rradius 30.8241
rwrist -9.93952
rhand -20.14 32.6261
rfingers 7.12502
rthumb 6.2047 2.73694
lclavicle 3.03147e-015 7.45443e-015
lhumerus -47.0388 10.9305 76.0479
lradius 22.6374
lwrist -38.2116
lhand 6.45935 40.6113
lfingers 7.12502
lthumb 31.7609 67.8649
rfemur -9.39637 -2.03517 19.6706
rtibia 45.9612
rfoot 10.9994 1.04966
rtoes -30.5069
lfemur -28.5461 -15.9706 -21.2814
ltibia 17.5413
lfoot -5.01151 23.6279
ltoes 28.8028
2219
root -2.20395 16.8107 24.1537 -350.348 12.2616 717.909
lowerback -5.92655 1.26466 -0.613017
upperback -7.00894 1.76098 0.759804
thorax -3.97043 0.94644 1.16763
lowerneck -8.69648 1.29602 -1.94457
upperneck 19.8058 0.783099 6.94979
head 7.46095 0.890105 2.67789
rclavicle 3.46196e-014 1.88845e-014
rhumerus -44.8318 2.67592 -80.2723
rradius 30.833
rwrist -10.1081
rhand -20.0885 32.4966
rfingers 7.12502
rthumb 6.25436 2.60895
lclavicle 3.46196e-014 1.88845e-014
lhumerus -46.9685 10.7241 76.2014
lradius 22.8914
lwrist -38.0145
lhand 6.57568 40.9142
lfingers 7.12502
lthumb 31.8717 68.1458
rfemur -10.9618 -1.60994 20.194
rtibia 48.747
rfoot 12.1631 3.77625
rtoes -31.18
lfemur -28.1526 -15.5588 -21.081
ltibia 17.6797
lfoot -4.97583 22.8996
ltoes 29.8665
2220
root -2.11368 16.8104 24.2493 -350.37 12.7184 718.571
lowerback -5.64976 1.28389 -0.729266
upperback -7.07424 1.78338 0.507726
thorax -4.1896 0.957501 0.964472
lowerneck -8.8414 1.12934 -2.55322
upperneck 20.1799 0.600302 7.15098
head 7.61263 0.784027 2.84229
rclavicle 1.28775e-014 7.50412e-015
rhumerus -45.2394 2.27588 -80.0716
rradius 30.7063
rwrist -10.2116
rhand -19.721 32.2729
rfingers 7.12502
rthumb 6.60918 2.39605
lclavicle 1.28775e-014 7.50412e-015
lhumerus -46.7843 10.2177 76.5442
lradius 23.0941
lwrist -37.7444
lhand 7.23018 41.2199
lfingers 7.12502
lthumb 32.4948 68.3253
rfemur -12.3023 -2.14321 19.082
rtibia 51.5647
rfoot 13.6255 2.89298
rtoes -22.118
lfemur -27.5563 -15.3629 -22.4616
ltibia 17.9478
lfoot -5.14872 22.1143
ltoes 29.4001
2221
root -2.03967 16.8054 24.3564 -350.541 12.7629 719.089
lowerback -5.72601 1.3729 -0.989288
upperback -6.80342 1.90298 0.354211
thorax -3.86792 1.02156 0.959885
lowerneck -9.19818 1.10364 -2.7394
upperneck 20.2781 0.656059 6.85662
head 7.70722 0.775579 2.78805
rclavicle -6.349e-014 -3.8763e-015
rhumerus -45.044 2.14302 -80.049
rradius 30.4237
rwrist -10.5351
rhand -19.1835 31.6759
rfingers 7.12502
rthumb 7.12804 1.8159
lclavicle -6.349e-014 -3.8763e-015
lhumerus -46.3651 9.86465 76.8721
lradius 23.6308
lwrist -37.6212
lhand 7.89061 41.5445
lfingers 7.12502
lthumb 33.123 68.5187
rfemur -13.6418 -2.05576 18.2468
rtibia 54.3235
rfoot 14.8386 1.57316
rtoes -15.438
lfemur -26.6859 -14.776 -23.674
ltibia 17.8975
lfoot -4.98328 21.3
ltoes 28.0029
2222
root -1.97158 16.7989 24.4637 -350.791 12.8407 719.634
lowerback -4.5315 1.44664 -1.31811
upperback -7.39209 1.99255 0.166127
thorax -5.16922 1.08741 0.905201
lowerneck -8.46267 1.09719 -2.61806
upperneck 20.5072 0.730453 6.28889
head 7.64985 0.761787 2.58166
rclavicle -4.93421e-014 -4.42296e-015
rhumerus -46.4012 2.26452 -80.2646
rradius 30.4481
rwrist -11.0764
rhand -18.8184 30.7011
rfingers 7.12502
rthumb 7.48041 0.853354
lclavicle -4.93421e-014 -4.42296e-015
lhumerus -47.5113 8.95345 76.9996
lradius 24.4796
lwrist -37.1094
lhand 7.91 41.4857
lfingers 7.12502
lthumb 33.1415 68.4559
rfemur -14.8331 -1.891 17.443
rtibia 56.9717
rfoot 14.7974 2.8111
rtoes -19.7067
lfemur -25.4528 -14.5889 -24.7873
ltibia 17.3272
lfoot -4.66484 20.9249
ltoes 27.1236
2223
root -1.89301 16.7935 24.5662 -351.138 13.092 720.363
lowerback -4.74455 1.50524 -1.56859
upperback -6.70049 2.06616 -0.111894
thorax -4.31777 1.11741 0.777539
lowerneck -8.92332 1.01247 -2.5916
upperneck 20.0724 0.736434 5.74857
head 7.59442 0.716911 2.39532
rclavicle -4.21827e-014 -2.28602e-015
rhumerus -45.6609 1.69384 -80.1967
rradius 30.1626
rwrist -11.0824
rhand -18.5696 30.1751
rfingers 7.12502
rthumb 7.72059 0.336007
lclavicle -4.21827e-014 -2.28602e-015
lhumerus -46.3973 8.28729 77.67
lradius 24.884
lwrist -36.14
lhand 7.83949 41.4096
lfingers 7.12502
lthumb 33.0744 68.394
rfemur -15.6848 -2.04583 16.399
rtibia 59.4538
rfoot 13.9023 3.56483
rtoes -22.6583
lfemur -24.1326 -15.0141 -26.0254
ltibia 16.9467
lfoot -4.68747 21.0807
ltoes 27.2993
2224
root -1.81449 16.7856 24.6634 -351.429 13.5486 721.108
lowerback -4.17863 1.3994 -2.03962
upperback -6.62532 1.91579 -0.239226
thorax -4.56601 1.06104 0.893013
lowerneck -9.24086 1.122 -2.81271
upperneck 20.5534 0.93017 5.69122
head 7.80013 0.795503 2.44487
rclavicle -3.56531e-014 -1.1076e-014
rhumerus -45.7026 1.47519 -80.0621
rradius 29.6517
rwrist -10.5456
rhand -18.3883 30.3426
rfingers 7.12502
rthumb 7.89555 0.510081
lclavicle -3.56531e-014 -1.1076e-014
lhumerus -46.4059 7.62065 78.3205
lradius 25.6337
lwrist -35.1235
lhand 7.98349 42.0261
lfingers 7.12502
lthumb 33.2113 68.9814
rfemur -16.4929 -2.46366 15.4121
rtibia 61.7842
rfoot 12.7256 3.24658
rtoes -24.4909
lfemur -22.9273 -15.2496 -27.3448
ltibia 16.6805
lfoot -4.71709 20.8371
ltoes 26.291
